<svg xmlns="http://www.w3.org/2000/svg"  viewBox="0 0 64 64" width="64px" height="64px" baseProfile="basic"><linearGradient id="q-_igk2vCbz4jMO58Amu4a" x1="192.655" x2="225.711" y1="896.874" y2="896.874" gradientTransform="rotate(90 549.708 380.667)" gradientUnits="userSpaceOnUse"><stop offset="0" stop-color="#6dc7ff"/><stop offset="1" stop-color="#eaabff"/></linearGradient><path fill="url(#q-_igk2vCbz4jMO58Amu4a)" d="M16.999,51.998v-7.079	c0.343,0.055,0.679,0.081,1.001,0.081c2.076,0,4.46-0.584,6.385-1.815c1.959-1.253,3.615-3.315,3.615-6.185	c0-0.711-0.379-1.369-0.995-1.728l-2.267-1.32c0.167-0.283,0.261-0.599,0.261-0.952v-7l5.615,0.936	c2.084,1.441,4.199,2.6,6.385,3.064l0.313-1.737l5.687,4.737c5.461,2.187,7,5.932,7,10v6.344c-4.549,4.72-10.933,7.656-18,7.656	C26.374,57.001,21.179,55.139,16.999,51.998z"/><linearGradient id="q-_igk2vCbz4jMO58Amu4b" x1="189.732" x2="204.661" y1="897.249" y2="897.249" gradientTransform="rotate(90 553.53 375.72)" gradientUnits="userSpaceOnUse"><stop offset="0" stop-color="#6dc7ff"/><stop offset="1" stop-color="#eaabff"/></linearGradient><path fill="url(#q-_igk2vCbz4jMO58Amu4b)" d="M25.001,19.001l-1-1v-3l2-1l3.428-0.285l-1.428,0.285	c-0.416,1.333-1,2.627-1,4v1c0,1.413,1.752,2.251,3,3c1.155-0.845,2.511-2,4-2c1.288,0,2.708,0.481,4,1v-7l-3.531-0.705l3.531-0.295	l2,1l-1,3v4c0,2.603-2.397,6-5,6C30.462,27.001,26.825,23.871,25.001,19.001z M37.001,22.001l-2-1h-1l-2,1.693	C33.846,22.694,35.334,22.517,37.001,22.001z"/><linearGradient id="q-_igk2vCbz4jMO58Amu4c" x1="194.001" x2="207.864" y1="900.499" y2="900.499" gradientTransform="rotate(90 542.251 377.249)" gradientUnits="userSpaceOnUse"><stop offset="0" stop-color="#6dc7ff"/><stop offset="1" stop-color="#eaabff"/></linearGradient><path fill="url(#q-_igk2vCbz4jMO58Amu4c)" d="M12.001,38.001c0-2.332,0.663-4.604,1.524-6.824	c0.349,1.217,0.864,2.229,1.525,3.005c1.004,1.18,2.345,3.819,3.951,3.819c1.173,0,2.749-0.476,4-1h3c0,4-4.512,6-8,6	C15.398,43.001,12.001,40.647,12.001,38.001z"/><linearGradient id="q-_igk2vCbz4jMO58Amu4d" x1="191.251" x2="205.114" y1="900.738" y2="900.738" gradientTransform="rotate(90 545.814 372.562)" gradientUnits="userSpaceOnUse"><stop offset="0" stop-color="#6dc7ff"/><stop offset="1" stop-color="#eaabff"/></linearGradient><path fill="url(#q-_igk2vCbz4jMO58Amu4d)" d="M19.001,32.001v-2h-1l-1-4l-3.308,1.704l-1.692-3.704	v-3l7-2h2v2.172c1.164,0.413,2,1.524,2,2.828c0,0.888,0.613,2.451,0,3l-1,1c-0.907,0.968-1,2.325-1,4H19.001z"/><linearGradient id="q-_igk2vCbz4jMO58Amu4e" x1="188.402" x2="239.508" y1="897.25" y2="897.25" gradientTransform="rotate(90 555.525 373.726)" gradientUnits="userSpaceOnUse"><stop offset="0" stop-color="#1a6dff"/><stop offset="1" stop-color="#c822ff"/></linearGradient><path fill="url(#q-_igk2vCbz4jMO58Amu4e)" d="M6.001,32.001c0-11.476,7.447-21.224,17.771-24.669	c-0.443,0.709-0.721,1.512-0.765,2.415C14.21,13.307,8.001,21.934,8.001,32.001c0,13.248,10.752,24,24,24	c3.956,0,7.691-0.959,10.983-2.657c-0.459-8.888-10.003-19.829-17.983-27.343l3-1c11.943,8.86,19.319,17.22,19.955,24.924	c4.935-4.397,8.045-10.799,8.045-17.924c0-8.043-3.965-15.167-10.045-19.523c0.028-0.153,0.045-0.313,0.045-0.477	c0-1.683-1.487-3-3-3c-0.937,0-1.925,0.149-2.883,0.36l-0.083,0.021c-0.283-0.101-0.568-0.196-0.856-0.287l-0.685-2.183	c-0.012-0.033-0.023-0.068-0.035-0.101C49.69,9.686,58.001,19.879,58.001,32.001c0,14.353-11.648,26-26,26	C17.647,58.001,6.001,46.354,6.001,32.001z M15.051,34.185c1.004,1.179,2.344,0.816,3.949,0.816c2.235,0,6,0.236,6-2v-1	c0.668,1.715,1,3.301,1,5c0,2.335-1.723,4-4,4C18.71,41.001,15.494,39.078,15.051,34.185z M9.998,25.501c0-1.38,1.123-2.5,2.503-2.5	s2.503,1.12,2.503,2.5c0,1.38-1.123,2.5-2.503,2.5S9.998,26.881,9.998,25.501z M19.001,16.49c0-1.52,3.808-2.195,6-2.489v-4	c0-3.144,5.288-5,8-5c1.459,0,3.149,1.12,3.587,2.512l1.413,4.488c1.667-0.5,3.467-1,5-1c0.471,0,1,0.473,1,1	c0,1.093-3.075,3.536-5,5l-1-3c-4.333,0.825-6.569,1-13,1v4C22.514,18.651,19.001,17.871,19.001,16.49z M29.001,16.998	c0-0.551,0.449-0.997,1-0.997c0.551,0,1,0.447,1,0.997c0,0.551-0.449,0.997-1,0.997C29.45,17.995,29.001,17.549,29.001,16.998z M34.998,15.999c0-0.551,0.451-0.999,1.001-0.999s1.001,0.448,1.001,0.999s-0.451,0.999-1.001,0.999S34.998,16.55,34.998,15.999z"/></svg>