<svg role="img" viewBox="0 0 32 32" xmlns="http://www.w3.org/2000/svg" id="Sqlalchemy--Streamline-Simple-Icons" height="32" width="32"><desc>Sqlalchemy Streamline Icon: https://streamlinehq.com</desc><title>SQLAlchemy</title><path d="M15.733333333333334 21.273333333333333a58.75733333333333 58.75733333333333 0 0 1 -2.2306666666666666 -0.9213333333333332c-2.3146666666666667 -1.0093333333333332 -2.6413333333333333 -1.0293333333333332 -3.332 -0.19066666666666665 -0.15866666666666665 0.19466666666666665 -0.3333333333333333 0.31466666666666665 -0.3826666666666666 0.26666666666666666 -0.148 -0.148 0.292 -0.8586666666666667 0.8226666666666667 -1.3239999999999998 0.43333333333333335 -0.37999999999999995 0.5773333333333333 -0.43333333333333335 1.0546666666666666 -0.37999999999999995 0.304 0.03333333333333333 1.3133333333333332 0.3866666666666666 2.2426666666666666 0.7813333333333332 2.0973333333333333 0.892 2.7119999999999997 1.0813333333333333 3.5133333333333328 1.0813333333333333 0.9746666666666666 0 1.4746666666666668 -0.6826666666666666 1.168 -1.5893333333333333 -0.076 -0.228 -0.05333333333333333 -0.304 0.09866666666666665 -0.304 0.284 0 0.42933333333333334 1.0626666666666666 0.224 1.6733333333333331a2.1559999999999997 2.1559999999999997 0 0 1 -0.5653333333333332 0.8186666666666667c-0.33466666666666667 0.2813333333333333 -0.5466666666666666 0.3426666666666667 -1.172 0.33866666666666667a5.137333333333333 5.137333333333333 0 0 1 -1.4426666666666668 -0.25066666666666665h0.0013333333333333333Zm0.4013333333333333 -2.966666666666667c0 -0.064 0.23866666666666664 -0.17866666666666667 0.5346666666666666 -0.25066666666666665l0.5346666666666666 -0.132 0.11466666666666665 -1.928c0.12533333333333332 -2.1319999999999997 0.03333333333333333 -4.229333333333333 -0.1973333333333333 -4.510666666666666 -0.08399999999999999 -0.09866666666666665 -0.3373333333333333 -0.22 -0.5693333333333332 -0.2733333333333333 -0.94 -0.208 -0.31466666666666665 -0.352 1.5106666666666666 -0.352 1.824 0 2.404 0.132 1.5359999999999998 0.352 -0.748 0.18666666666666668 -0.7519999999999999 0.1973333333333333 -0.7519999999999999 3.24 0 1.688 0.06133333333333333 2.96 0.148 3.1226666666666665 0.12266666666666666 0.228 0.304 0.27599999999999997 1.0026666666666666 0.27599999999999997 1.4413333333333331 0 1.9373333333333334 -0.33999999999999997 2.3293333333333335 -1.604 0.11733333333333332 -0.3786666666666666 0.42 -0.31066666666666665 0.31466666666666665 0.072 -0.049333333333333326 0.17866666666666667 -0.12933333333333333 0.72 -0.17866666666666667 1.2133333333333334l-0.09066666666666667 0.892H19.25333333333333c-1.7146666666666666 0 -3.1186666666666665 -0.05333333333333333 -3.1186666666666665 -0.11733333333333332Zm7.082666666666666 -0.09066666666666667c0 -0.11466666666666665 0.11066666666666666 -0.228 0.292 -0.31466666666666665 0.244 -0.11466666666666665 0.4026666666666666 -0.35333333333333333 0.9786666666666666 -1.48 0.9146666666666667 -1.7826666666666666 2.356 -4.845333333333333 2.493333333333333 -5.304 0.10533333333333333 -0.34933333333333333 0.12933333333333333 -0.368 0.5226666666666666 -0.41333333333333333 0.228 -0.026666666666666665 0.41733333333333333 -0.04133333333333333 0.42133333333333334 -0.03333333333333333l0.7026666666666667 1.5359999999999998c0.3786666666666666 0.8373333333333333 1.1413333333333333 2.432 1.6946666666666665 3.5386666666666664 0.9266666666666665 1.8626666666666667 1.0293333333333332 2.0306666666666664 1.3399999999999999 2.181333333333333 0.1893333333333333 0.092 0.3373333333333333 0.23199999999999998 0.3373333333333333 0.31599999999999995 0 0.132 -0.16266666666666665 0.148 -1.5666666666666667 0.148 -1.408 0 -1.5666666666666667 -0.016 -1.5666666666666667 -0.152 0 -0.09066666666666667 0.12133333333333332 -0.1893333333333333 0.31466666666666665 -0.25466666666666665 0.17866666666666667 -0.057333333333333326 0.31466666666666665 -0.16266666666666665 0.31466666666666665 -0.24266666666666664 0 -0.076 -0.18533333333333335 -0.576 -0.41333333333333333 -1.1119999999999999l-0.41333333333333333 -0.9746666666666666h-3.1333333333333333l-0.3 0.6599999999999999c-0.5613333333333332 1.2373333333333334 -0.5733333333333333 1.5293333333333332 -0.049333333333333326 1.6693333333333333 0.2613333333333333 0.072 0.3333333333333333 0.12933333333333333 0.30266666666666664 0.24666666666666665 -0.03333333333333333 0.1373333333333333 -0.16933333333333334 0.156 -1.156 0.156 -1.0586666666666666 0.008 -1.1159999999999999 0 -1.1159999999999999 -0.17066666666666666Zm-20.86933333333333 0.03333333333333333a14.577333333333332 14.577333333333332 0 0 1 -1.0773333333333333 -0.2613333333333333l-0.732 -0.2053333333333333 0.37599999999999995 -0.6906666666666667 0.3746666666666667 -0.6906666666666667 -0.30266666666666664 -0.3746666666666667c-0.42933333333333334 -0.532 -0.9826666666666666 -1.696 -0.9866666666666666 -2.072 -0.004 -0.876 1.1346666666666665 -2.1466666666666665 2.5306666666666664 -2.829333333333333 0.96 -0.4706666666666666 1.7213333333333332 -0.48266666666666663 2.6786666666666665 -0.034666666666666665l0.72 0.3373333333333333 0.20933333333333332 -0.29866666666666664c0.11333333333333334 -0.16399999999999998 0.208 -0.37999999999999995 0.208 -0.4746666666666666 0 -0.09466666666666665 0.09466666666666665 -0.17866666666666667 0.20933333333333332 -0.17866666666666667 0.11333333333333334 0 0.208 0.030666666666666665 0.208 0.064 0 0.08399999999999999 -0.8386666666666667 2.2013333333333334 -0.892 2.2546666666666666 -0.02266666666666667 0.021333333333333333 -0.24933333333333332 -0.08399999999999999 -0.508 -0.236 -0.728 -0.428 -1.6426666666666665 -0.7133333333333334 -2.352 -0.732 -1.6506666666666665 -0.04133333333333333 -2.2226666666666666 1.5706666666666664 -1.0586666666666666 2.9813333333333336l0.4106666666666666 0.4973333333333333 1.1186666666666665 -0.9066666666666667c1.2559999999999998 -1.0133333333333332 1.4 -1.036 2.3786666666666667 -0.36 1.0999999999999999 0.7586666666666666 1.1186666666666665 1.912 0.056 3.1186666666666665 -0.94 1.0733333333333333 -1.908 1.369333333333333 -3.5693333333333332 1.0919999999999999Zm7.978666666666666 -0.22c-0.8613333333333333 -0.4013333333333333 -1.6386666666666667 -1.168 -2.0866666666666664 -2.0626666666666664 -0.7173333333333334 -1.4346666666666668 -0.4973333333333333 -2.353333333333333 0.8613333333333333 -3.593333333333333 1.1413333333333333 -1.0426666666666666 2.0746666666666664 -1.4493333333333331 3.3306666666666667 -1.4493333333333331 0.9066666666666667 0 1.0999999999999999 0.049333333333333326 1.688 0.4093333333333333 1.392 0.8613333333333333 1.7373333333333332 2.5039999999999996 0.9 4.294666666666666 -0.9826666666666666 2.1026666666666665 -3.0586666666666664 3.16 -4.693333333333333 2.401333333333333Zm-5.1626666666666665 -0.9359999999999999c0.5453333333333332 -0.42933333333333334 0.508 -1.2226666666666666 -0.08399999999999999 -1.8519999999999999 -0.744 -0.7893333333333332 -0.9746666666666666 -0.7546666666666666 -2.284 0.3373333333333333 -1.3013333333333332 1.0853333333333333 -1.3093333333333332 1.044 0.24666666666666665 1.54 1.028 0.33466666666666667 1.6733333333333331 0.32266666666666666 2.1213333333333333 -0.025333333333333333Zm8.045333333333332 -0.06133333333333333c0.6453333333333333 -0.31866666666666665 1.0893333333333333 -1.7906666666666666 0.9066666666666667 -3.0119999999999996 -0.22666666666666668 -1.5066666666666664 -2.264 -2.5346666666666664 -3.7586666666666666 -1.8973333333333333 -1.5373333333333332 0.6573333333333333 -1.5599999999999998 2.405333333333333 -0.049333333333333326 3.9799999999999995 1.0546666666666666 1.1039999999999999 1.9613333333333334 1.392 2.9013333333333335 0.9293333333333332Zm15.145333333333333 -1.885333333333333c0.05333333333333333 -0.09466666666666665 -1.1266666666666665 -2.6706666666666665 -1.2373333333333334 -2.6973333333333334 -0.07999999999999999 -0.02266666666666667 -1.3013333333333332 2.496 -1.3013333333333332 2.685333333333333 0 0.09599999999999999 2.481333333333333 0.10666666666666666 2.5386666666666664 0.011999999999999999Z" fill="#000000" stroke-width="1.3333"></path></svg>